<?xml version="1.0" encoding="utf-8"?>
<!-- Generator: Adobe Illustrator 27.0.0, SVG Export Plug-In . SVG Version: 6.00 Build 0)  -->
<svg version="1.1" id="Layer_1" xmlns="http://www.w3.org/2000/svg" xmlns:xlink="http://www.w3.org/1999/xlink" x="0px" y="0px"
	 viewBox="0 0 512 512" style="enable-background:new 0 0 512 512;" xml:space="preserve">
<g>
	<path d="M208.7,308.1L107,224.6v123c0,6.3,5.2,11.5,11.5,11.5h275c6.3,0,11.5-5.2,11.5-11.5v-123l-101.7,83.5
		C275.8,330.7,236.2,330.7,208.7,308.1z"/>
	<path d="M393.5,152.9h-275c-6.3,0-11.5,5.2-11.5,11.5v15.8l123.5,101.4c14.8,12.2,36.1,12.2,50.9,0L405,180.2v-15.8
		C405,158,399.8,152.9,393.5,152.9z"/>
	<path d="M256,0C114.6,0,0,114.6,0,256s114.6,256,256,256s256-114.6,256-256S397.4,0,256,0z M393.5,393.5h-275
		c-25.3,0-45.8-20.6-45.8-45.8V164.3c0-25.3,20.6-45.8,45.8-45.8h275c25.3,0,45.8,20.6,45.8,45.8v183.3
		C439.3,372.9,418.8,393.5,393.5,393.5z"/>
</g>
</svg>
