<?xml version="1.0" encoding="UTF-8" standalone="no"?>
<!-- Created with Inkscape (http://www.inkscape.org/) -->

<svg
   width="158.75mm"
   height="158.75mm"
   viewBox="0 0 158.75 158.75"
   version="1.1"
   id="svg5"
   xml:space="preserve"
   inkscape:version="1.2.2 (732a01da63, 2022-12-09)"
   sodipodi:docname="lboro_logo_is.svg"
   xmlns:inkscape="http://www.inkscape.org/namespaces/inkscape"
   xmlns:sodipodi="http://sodipodi.sourceforge.net/DTD/sodipodi-0.dtd"
   xmlns="http://www.w3.org/2000/svg"
   xmlns:svg="http://www.w3.org/2000/svg"
   xmlns:rdf="http://www.w3.org/1999/02/22-rdf-syntax-ns#"
   xmlns:cc="http://creativecommons.org/ns#"
   xmlns:dc="http://purl.org/dc/elements/1.1/"><title
     id="title242">Lboro_Logo</title><sodipodi:namedview
     id="namedview7"
     pagecolor="#ffffff"
     bordercolor="#666666"
     borderopacity="1.0"
     inkscape:showpageshadow="2"
     inkscape:pageopacity="0.0"
     inkscape:pagecheckerboard="0"
     inkscape:deskcolor="#d1d1d1"
     inkscape:document-units="mm"
     showgrid="false"
     inkscape:zoom="1"
     inkscape:cx="134.5"
     inkscape:cy="258"
     inkscape:window-width="1920"
     inkscape:window-height="1009"
     inkscape:window-x="-8"
     inkscape:window-y="-8"
     inkscape:window-maximized="1"
     inkscape:current-layer="layer1" /><defs
     id="defs2" /><g
     inkscape:label="Layer 1"
     inkscape:groupmode="layer"
     id="layer1"
     transform="translate(-28.575001,-55.95937)"><path
       style="fill:#ffffff;stroke-width:0.264583"
       d="m 102.30625,214.53367 c -0.0398,-0.0397 -0.78045,-0.127 -1.64603,-0.19391 -10.758184,-0.83163 -23.402603,-4.90612 -32.985769,-10.62921 -6.306105,-3.76603 -10.923635,-7.3433 -15.827894,-12.2621 -5.56758,-5.5841 -9.632326,-11.00981 -13.482194,-17.99632 -8.472391,-15.37518 -11.317047,-31.50821 -8.865188,-50.27755 1.3861,-10.61082 6.315986,-23.01315 13.045586,-32.819377 5.645711,-8.226805 13.553439,-15.971218 21.74899,-21.299818 10.689857,-6.950352 23.896217,-11.67526 35.454167,-12.68462 11.847192,-1.034619 22.617202,0.161537 33.205212,3.687891 22.10924,7.363522 39.66266,23.780574 48.55384,45.410564 2.00744,4.8836 3.69443,10.46756 4.26658,14.12244 0.13668,0.87313 0.30236,1.88516 0.36818,2.24896 0.11873,0.65624 0.34385,2.16867 0.51198,3.43958 0.43784,3.3098 0.52835,5.20517 0.51169,10.71563 -0.0208,6.87254 -0.43881,10.72886 -1.8405,16.97855 -4.21709,18.80264 -15.65349,35.9027 -31.50689,47.11006 -14.08286,9.95571 -29.99131,14.8664 -47.26084,14.58868 -2.29827,-0.037 -4.21118,-0.0997 -4.25092,-0.13945 z m 8.33245,-18.45548 c 6.02558,-1.16362 16.74675,-6.778 23.10818,-12.10109 10.13537,-8.48106 18.89075,-21.95906 21.74679,-33.47694 0.40642,-1.63898 0.45557,-5.01093 0.53641,-36.79548 l 0.089,-34.991143 -47.8309,0.0029 c -26.306986,0.0016 -48.285661,0.07806 -48.841498,0.169899 l -1.010608,0.167 0.114562,34.556664 c 0.130178,39.26666 -0.08682,35.55721 2.459173,42.03725 6.57906,16.74494 16.533572,27.92965 32.187422,36.1652 7.730259,4.06692 12.469219,5.22595 17.441469,4.26574 z m -7.98037,-2.93252 c -3.542076,-0.79882 -7.408329,-3.46185 -7.408329,-5.10278 0,-0.41638 0.47625,-1.67739 1.058333,-2.80223 1.552681,-3.00049 1.346584,-4.96254 -0.775107,-7.37901 -0.940903,-1.07163 -0.934794,-1.10846 0.543258,-3.27499 1.131091,-1.65796 1.455754,-3.16997 1.060196,-4.9375 -0.290314,-1.29726 -1.596744,-3.73907 -2.240952,-4.18849 -0.132834,-0.0927 0.136668,-0.71817 0.598898,-1.39 1.228304,-1.78528 1.85964,-3.32393 1.86623,-4.54823 0.0057,-1.05255 -0.35216,-1.90631 -1.967428,-4.69421 l -0.739254,-1.27593 0.81211,-0.84074 c 1.826876,-1.89126 2.416429,-4.97017 1.386197,-7.23933 -0.657109,-1.44733 -1.627757,-1.93578 -3.846799,-1.93578 -1.9857,0 -3.086107,0.38869 -4.927801,1.74062 l -1.294153,0.94999 -1.037495,-0.82171 c -2.834839,-2.24523 -5.103284,-2.40684 -8.245822,-0.58744 l -1.915554,1.10902 -1.823969,-1.0836 c -2.994035,-1.77872 -5.138605,-1.72268 -8.052112,0.21041 -1.299017,0.86189 -1.398786,0.88595 -2.122165,0.51188 -0.984514,-0.50911 -2.202846,-1.73254 -2.498965,-2.50941 -0.128413,-0.3369 -0.233479,-4.65674 -0.233479,-9.59965 0,-9.62369 0.05814,-10.10832 1.359905,-11.33634 0.343458,-0.324 0.948047,-0.75865 1.34353,-0.96589 0.679532,-0.35608 0.817708,-0.31567 2.513542,0.73519 1.538436,0.95332 2.047666,1.12772 3.568912,1.22221 1.6573,0.10295 1.893075,0.0443 3.571875,-0.8884 0.988594,-0.54924 1.867844,-1.10438 1.953889,-1.23365 0.08605,-0.12926 1.200087,0.32003 2.475643,0.99844 2.183683,1.16139 2.416601,1.22726 3.986149,1.12732 1.459196,-0.0929 1.902701,-0.26291 3.558535,-1.36396 l 1.891586,-1.25782 0.715999,0.76648 c 2.150819,2.30246 6.73676,2.74466 8.646893,0.83377 0.764651,-0.76495 0.793033,-0.87871 0.774163,-3.10336 -0.02156,-2.54351 -0.37183,-3.53538 -1.768245,-5.00737 l -0.802547,-0.84599 1.052113,-1.79985 c 0.578662,-0.98991 1.206277,-2.18818 1.394703,-2.6628 0.525743,-1.32431 0.22524,-3.19721 -0.799544,-4.98323 -0.492985,-0.85918 -0.859859,-1.80027 -0.815279,-2.09131 0.04458,-0.29105 0.497406,-1.757132 1.006279,-3.257976 1.130308,-3.333657 1.057375,-4.13925 -0.592976,-6.549837 l -1.158542,-1.692225 1.055994,-1.507484 c 1.309534,-1.869419 1.685356,-3.201162 1.461575,-5.179142 l -0.172511,-1.524799 h 9.234741 c 5.07911,0 9.94207,0.07393 10.80658,0.164289 l 1.57184,0.16429 v 1.775303 c 0,1.535506 0.14709,2.081837 1.08892,4.044677 l 1.08893,2.269376 -1.19841,2.371019 c -1.52829,3.023682 -1.54176,3.824467 -0.11,6.542019 1.17504,2.2303 1.1754,2.21815 -0.16467,5.55548 -1.16933,2.91215 -1.06265,3.85232 0.75469,6.65134 l 1.0546,1.62426 -0.81085,0.88776 c -2.43939,2.6708 -2.42893,7.63265 0.0188,8.89056 0.90049,0.46278 4.02716,0.41714 5.20851,-0.076 0.54103,-0.22586 1.60686,-0.83965 2.36852,-1.36398 l 1.38483,-0.95332 0.53436,0.67933 c 0.85461,1.08647 3.05915,2.04863 4.69391,2.04863 1.60016,0 2.70684,-0.3968 4.44815,-1.59485 l 1.20716,-0.83055 1.80288,1.07108 c 3.1956,1.89847 4.55662,1.90454 7.77903,0.0347 2.04835,-1.18856 2.25043,-1.18212 3.20989,0.10232 0.52111,0.69762 0.54565,1.12348 0.62399,10.82746 0.0522,6.4678 -0.0176,10.44008 -0.19399,11.04316 -0.15154,0.51804 -0.58258,1.23035 -0.95787,1.58291 l -0.68233,0.64102 -0.84347,-0.5091 c -2.87345,-1.73437 -3.71807,-2.04011 -5.34138,-1.93352 -1.30867,0.0859 -1.91281,0.30541 -3.43959,1.24951 -1.01864,0.6299 -1.87686,1.11959 -1.90716,1.08821 -0.0303,-0.0314 -0.9799,-0.5841 -2.11025,-1.22826 -3.04362,-1.73448 -4.59914,-1.6234 -7.89417,0.56372 l -1.45532,0.96598 -0.98946,-0.96385 c -1.28038,-1.24724 -3.21432,-1.82802 -5.63216,-1.6914 -2.00401,0.11323 -2.71449,0.53901 -3.33133,1.99638 -0.79606,1.88081 -0.33459,4.38328 1.26589,6.86466 l 1.05176,1.63063 -0.93989,1.30827 c -2.05311,2.85777 -2.24779,4.61225 -0.81207,7.31853 0.50932,0.96006 0.92604,1.96232 0.92604,2.22724 0,0.26492 -0.42168,1.81334 -0.93707,3.44094 -1.08525,3.42727 -1.05427,4.05977 0.30201,6.16493 0.4948,0.76801 0.89964,1.66419 0.89964,1.99151 0,0.32732 -0.40819,1.34337 -0.9071,2.25789 -1.58933,2.91331 -1.52287,4.21184 0.38199,7.46282 l 1.07303,1.83133 -1.00156,1.03102 c -1.14734,1.18108 -4.98996,3.16601 -7.35157,3.7975 -2.24714,0.60087 -7.98654,0.73605 -10.18646,0.23992 z m 9.241,-49.45922 c 0.87109,-0.1867 1.34928,-0.6773 0.66765,-0.68497 -0.28377,-0.003 -1.03883,-0.24306 -1.67793,-0.53303 -1.06787,-0.48451 -1.1296,-0.56441 -0.76213,-0.98638 0.21993,-0.25253 0.44517,-0.59387 0.50053,-0.75853 0.0554,-0.16465 1.2913,-1.25418 2.74651,-2.42117 1.45521,-1.167 3.77693,-3.27366 5.15937,-4.68147 1.38245,-1.40781 3.04933,-2.83369 3.70417,-3.16862 1.44842,-0.74081 2.91042,-1.0942 2.91042,-0.70349 0,0.15252 0.16655,0.2134 0.37011,0.13528 0.20356,-0.0781 0.46008,0.004 0.57005,0.18147 0.136,0.22007 0.0811,0.26186 -0.17168,0.13071 -0.21359,-0.11081 -0.19168,-0.0438 0.0515,0.15756 0.23272,0.19269 0.4334,0.40988 0.44595,0.48264 0.0125,0.0728 0.11144,0.36328 0.21978,0.64559 0.12212,0.31826 0.0777,0.55306 -0.11686,0.61792 -0.17261,0.0575 -0.25637,0.19759 -0.18613,0.31123 0.0702,0.11364 -0.10762,0.41958 -0.39523,0.67987 -0.28761,0.26028 -0.52293,0.38068 -0.52293,0.26754 0,-0.11313 -0.17859,-0.0575 -0.39687,0.12369 -0.21829,0.18115 -0.39688,0.24069 -0.39688,0.13229 0,-0.1084 -0.17859,-0.0489 -0.39687,0.13229 -0.21829,0.18116 -0.39688,0.26315 -0.39688,0.18219 0,-0.0809 -1.21199,0.26098 -2.69331,0.75984 -2.87021,0.96659 -3.92127,1.68386 -3.92127,2.67596 0,0.90592 0.90499,0.79045 1.91674,-0.24455 0.46232,-0.47295 0.8783,-0.81798 0.92441,-0.76673 0.19004,0.21116 4.52707,-1.12032 5.68719,-1.74598 1.5602,-0.84143 2.14318,-1.70771 2.14318,-3.18464 0,-0.93975 -0.15397,-1.30346 -0.84353,-1.99253 -1.24516,-1.24427 -2.98843,-1.16854 -6.55641,0.28481 -2.52168,1.02716 -4.87383,1.47037 -5.5583,1.04734 -0.14602,-0.0902 -0.97117,-0.27844 -1.83366,-0.41821 -0.86249,-0.13977 -1.73982,-0.29459 -1.94962,-0.34404 -0.40423,-0.0953 -1.20034,-0.8476 -2.57253,-2.431 -0.46052,-0.53142 -1.01091,-0.96621 -1.22307,-0.96621 -0.21217,0 -0.90092,0.56555 -1.53055,1.25677 -1.50542,1.65267 -2.31243,2.17895 -3.34445,2.18107 -0.46748,10e-4 -1.51963,0.25229 -2.3381,0.55852 -1.177335,0.4405 -1.801048,0.5201 -2.986485,0.38116 -2.53656,-0.29731 -2.505035,-0.2718 -1.871035,-1.51454 0.607803,-1.19139 0.536723,-1.88572 -0.302236,-2.95228 -0.69101,-0.87848 -0.817478,-0.87723 -1.357871,0.0134 l -0.435555,0.71783 -0.468481,-0.98242 c -0.522735,-1.09619 -0.880444,-1.24527 -1.08756,-0.45325 -0.07611,0.29104 -0.2634,0.52917 -0.416202,0.52917 -0.152803,0 -0.200298,0.0775 -0.105545,0.17227 0.349813,0.34982 -0.717826,0.84871 -1.229837,0.57469 -0.431339,-0.23085 -0.468574,-0.18721 -0.302797,0.35481 0.103963,0.33991 0.352565,1.01762 0.552448,1.50602 0.421579,1.0301 0.298902,1.35936 -0.508575,1.36501 -0.318833,0.002 -0.745863,0.10927 -0.948954,0.23786 -0.624734,0.39558 1.07316,1.068 3.448984,1.3659 2.020411,0.25334 3.948049,0.95143 4.328938,1.56772 0.09269,0.14997 0.297757,0.19281 0.455707,0.0952 0.163217,-0.10087 0.211717,-0.0554 0.112361,0.10538 -0.09615,0.15558 -0.08399,0.3228 0.02702,0.37161 0.111014,0.0488 0.855896,0.84751 1.655295,1.77488 1.287044,1.49309 4.35635,4.00241 4.8956,4.00241 0.4317,0 1.08029,1.05353 1.06836,1.73536 -0.0109,0.62121 -0.20332,0.79203 -1.40793,1.24971 -0.76744,0.29158 -1.33489,0.5906 -1.261,0.66449 0.4778,0.4778 7.92153,0.63144 9.91296,0.2046 z m 22.81244,31.53386 c -0.18236,-0.1819 -0.63034,-0.33073 -0.99551,-0.33073 -0.79358,0 -1.71973,-1.26591 -1.26144,-1.72419 0.72111,-0.72112 4.33476,-0.4498 4.33476,0.32547 0,0.27606 -1.38622,2.06016 -1.60072,2.06017 -0.08,0 -0.29473,-0.14882 -0.47709,-0.33072 z m -8.50404,-2.91042 c 7.9e-4,-0.1819 0.11882,-0.74745 0.26225,-1.25677 0.21824,-0.775 0.54224,-1.07516 1.98655,-1.8403 l 1.72577,-0.91426 -0.92969,-0.37081 c -0.51133,-0.20395 -0.92948,-0.5069 -0.92922,-0.67324 2.6e-4,-0.16634 0.53604,-0.64079 1.19063,-1.05433 0.65458,-0.41355 1.19015,-0.84019 1.19015,-0.94809 0,-0.10791 0.17859,-0.19619 0.39687,-0.19619 0.51719,0 0.4941,0.16935 -0.13229,0.97014 -0.67895,0.86799 -0.66053,1.02148 0.16009,1.33348 0.68018,0.2586 0.68321,0.27158 0.23033,0.98564 -0.25241,0.39797 -0.73009,1.02124 -1.06152,1.38504 -0.33143,0.36381 -0.77876,1.09018 -0.99408,1.61416 -0.32912,0.80093 -0.55433,0.9796 -1.41367,1.12157 -1.44968,0.23949 -1.68384,0.21777 -1.68217,-0.15604 z m 14.3526,0.0348 c -0.60746,-0.1754 -0.96658,-0.50456 -1.22482,-1.12262 -0.20096,-0.48096 -0.79724,-1.44023 -1.32507,-2.13172 -0.93996,-1.23143 -1.0263,-1.74143 -0.29481,-1.74143 0.2011,0 0.43706,-0.11556 0.52436,-0.25681 0.2122,-0.34335 -0.58765,-1.85985 -0.98095,-1.85985 -0.22236,0 -0.21408,-0.094 0.0291,-0.33073 0.27366,-0.26634 0.52028,-0.12467 1.26666,0.7276 1.44902,1.6546 1.54193,1.93551 0.75824,2.29258 -0.36926,0.16825 -0.67138,0.39977 -0.67138,0.51449 0,0.11473 0.6638,0.41785 1.47512,0.67359 1.46216,0.46091 1.82525,0.78901 2.00413,1.81101 0.0509,0.29104 0.19927,0.60644 0.32962,0.7009 0.3782,0.27407 -0.0419,1.02123 -0.55942,0.99503 -0.25923,-0.0131 -0.85808,-0.13554 -1.33079,-0.27204 z m -8.00408,-0.76243 c -0.50932,-0.27885 -0.83674,-0.51716 -0.7276,-0.52958 0.80851,-0.0921 5.03076,-0.018 5.1389,0.0902 0.27787,0.27786 -1.51007,0.96816 -2.47993,0.95746 -0.55293,-0.006 -1.42205,-0.23923 -1.93137,-0.51807 z m 0.6948,-1.92698 c -0.60271,-0.60272 -0.60385,-0.61907 -0.50958,-7.34219 0.052,-3.70597 0.0911,-6.88695 0.0869,-7.06885 -0.005,-0.22868 0.4823,-0.33073 1.57994,-0.33073 1.41111,0 1.5875,0.0588 1.5875,0.52916 0,0.90618 0.3907,0.58675 1.13264,-0.92604 0.39253,-0.80036 0.86792,-1.45521 1.0564,-1.45521 0.18849,0 0.56718,0.38 0.84153,0.84444 0.45225,0.76561 0.51759,0.79649 0.69991,0.33073 0.11059,-0.28254 0.20945,-1.01554 0.21968,-1.62888 0.0141,-0.84625 0.15103,-1.18605 0.56779,-1.40909 0.30206,-0.16165 0.78265,-0.52737 1.06798,-0.81271 0.73503,-0.73502 1.02311,-0.41168 0.98884,1.10983 -0.0164,0.72586 -0.0865,1.26303 -0.15576,1.19371 -0.0693,-0.0693 -0.67875,0.69912 -1.35429,1.70763 -0.67554,1.00851 -1.34844,1.83493 -1.49534,1.8365 -0.1469,0.002 -0.4158,-0.23528 -0.59756,-0.52632 -0.43986,-0.70433 -0.80283,-0.66704 -1.44424,0.14837 -0.29312,0.37265 -0.68522,0.61911 -0.87133,0.5477 -0.26816,-0.10291 -0.34295,1.09558 -0.36038,5.77532 -0.0121,3.24785 -0.13555,6.20383 -0.27434,6.56885 -0.13878,0.36502 -0.18388,0.73212 -0.10023,0.81577 0.17367,0.17367 -1.07992,0.69607 -1.67034,0.69607 -0.21542,0 -0.6635,-0.27183 -0.99574,-0.60406 z m -2.50089,-6.61129 c -0.5069,-0.5069 -0.57516,-0.51998 -0.57516,-0.11018 0,0.38703 -0.0911,0.41624 -0.54332,0.1742 -0.29883,-0.15993 -0.74532,-0.61457 -0.99219,-1.01031 -0.27441,-0.43989 -0.62882,-0.68286 -0.91188,-0.62518 -0.53739,0.10953 -0.55042,0.0553 -0.20499,-0.85325 0.20295,-0.53378 0.17669,-0.67868 -0.12298,-0.67868 -0.48577,0 -0.92881,-0.82174 -0.92881,-1.72275 0,-0.42633 -0.31424,-1.01345 -0.80519,-1.5044 -0.44286,-0.44286 -0.75661,-0.93972 -0.69722,-1.10413 0.0594,-0.16441 0.005,-0.50006 -0.12155,-0.74589 -0.14598,-0.28424 -0.11808,-0.51586 0.0766,-0.63619 0.20159,-0.12459 0.24032,-0.0623 0.11339,0.18238 -0.10604,0.20438 -0.0329,0.17812 0.16256,-0.0584 0.29774,-0.36026 0.50398,-0.38171 1.27197,-0.1323 0.69859,0.22689 1.24253,0.76967 2.28691,2.28207 1.85319,2.68363 3.0044,4.98418 3.00427,6.00365 -1.3e-4,1.09361 -0.29897,1.2528 -1.01244,0.53933 z m 6.34972,-0.44649 c -0.0573,-1.46318 0.23989,-2.11443 2.51159,-5.50318 2.07573,-3.09642 2.67874,-3.57074 3.78607,-2.97811 0.5319,0.28467 0.54355,0.34917 0.16688,0.92405 -0.36413,0.55573 -0.36362,0.63387 0.005,0.77534 0.34697,0.13315 0.31494,0.27033 -0.20838,0.89244 -0.34011,0.40431 -0.84482,1.2375 -1.12158,1.85154 -0.31777,0.705 -0.6766,1.11643 -0.97372,1.11643 -0.40484,0 -0.43616,0.11978 -0.2244,0.85815 0.13536,0.47198 0.24612,0.89289 0.24612,0.93535 0,0.0425 -0.2303,-0.0461 -0.51178,-0.1967 -0.73906,-0.39553 -0.85813,-0.34538 -0.76314,0.32143 0.0522,0.36609 -0.1351,0.77359 -0.48635,1.05833 -0.67042,0.54349 -1.1419,0.59694 -1.16706,0.13229 -0.01,-0.1819 -0.1471,-0.0628 -0.30501,0.26458 -0.44922,0.93145 -0.9086,0.71388 -0.95428,-0.45194 z m -5.60196,-6.41085 c 0,-0.12438 -0.29966,-0.36269 -0.6659,-0.52956 -0.55427,-0.25254 -0.72214,-0.2265 -1.00135,0.15534 -0.30755,0.42061 -0.43794,0.36852 -1.5685,-0.62664 -1.48701,-1.30892 -1.92081,-2.12009 -2.02039,-3.77801 -0.0877,-1.46002 0.1555,-1.56104 1.27392,-0.52917 0.52475,0.48415 0.90503,1.20308 1.13651,2.14863 l 0.34788,1.42103 0.83988,-0.70671 0.83988,-0.70672 0.60389,1.13777 c 0.85302,1.60717 1.0159,2.2402 0.57638,2.2402 -0.19921,0 -0.3622,-0.10177 -0.3622,-0.22616 z m 0.3833,-2.37621 c -0.11196,-0.19368 -0.10899,-0.26674 0.007,-0.16237 0.11558,0.10437 0.50791,-0.0445 0.87185,-0.33073 0.74889,-0.58908 1.79292,-0.66569 2.88823,-0.21194 0.40965,0.16971 0.85397,0.31853 0.98736,0.33073 0.13339,0.0122 0.28173,0.14123 0.32964,0.28675 0.14251,0.4329 -4.83448,0.51862 -5.08366,0.0876 z m 0.99758,-1.81862 -0.6035,-0.24231 0.54273,-1.06384 c 0.61111,-1.19787 0.90956,-1.31228 1.33747,-0.51271 0.27485,0.51356 0.32758,0.52158 0.77378,0.11778 0.44655,-0.40412 0.52538,-0.39018 1.16956,0.20683 0.86734,0.80382 0.86273,0.87382 -0.0899,1.36643 -0.8626,0.44607 -2.20139,0.50074 -3.13017,0.12782 z M 74.071735,117.27656 c -0.0064,-0.0364 -0.03615,-0.73827 -0.06615,-1.55976 -0.06706,-1.83631 -0.558318,-2.45335 -2.282542,-2.86698 l -1.258207,-0.30184 -0.05584,-1.54751 c -0.05523,-1.5304 -0.04692,-1.54923 0.750914,-1.70368 0.443717,-0.0859 1.171085,-0.22673 1.616374,-0.31297 1.119431,-0.2168 1.374103,-1.05021 1.256466,-4.11179 -0.152503,-3.96913 -0.449392,-4.08589 -5.292735,-2.08141 -1.758082,0.7276 -3.239585,1.32292 -3.292224,1.32292 -0.05264,0 -0.09571,-2.0836 -0.09571,-4.630212 0,-2.546614 0.05973,-4.630208 0.132747,-4.630208 0.07301,0 1.412462,0.65137 2.976563,1.44749 1.916416,0.975448 3.306169,1.502532 4.261596,1.616277 l 1.41778,0.168788 -0.09486,-3.196458 C 73.960099,91.997898 73.894329,91.636049 73.356931,91.09868 72.89499,90.636762 72.497676,90.516136 71.570994,90.556467 l -1.191826,0.05187 v -1.84636 -1.846358 l 0.859895,-0.0039 c 1.72338,-0.0078 2.752503,-1.018728 2.891288,-2.840123 0.06184,-0.811537 0.07909,-0.820713 1.70425,-0.906137 l 1.641782,-0.0863 0.152648,0.926042 c 0.08396,0.509323 0.153956,1.312995 0.155557,1.785937 0.0027,0.799709 0.06542,0.859896 0.895882,0.859896 0.491133,0 1.265039,0.07441 1.719791,0.165365 0.82209,0.164417 0.826823,0.175001 0.826823,1.848956 v 1.683591 l -1.073846,0.171717 c -2.035169,0.325435 -2.221394,0.672518 -2.322197,4.328105 l -0.08875,3.218553 1.279377,-0.162907 c 0.77175,-0.09827 2.407735,-0.735928 4.123192,-1.6071 1.564101,-0.794308 2.903554,-1.444196 2.976563,-1.444196 0.07301,0 0.132747,2.083593 0.132747,4.630208 0,3.563064 -0.07623,4.614964 -0.330729,4.564064 -0.181902,-0.0364 -0.390261,-0.13376 -0.463021,-0.21641 -0.39102,-0.44414 -4.096031,-1.96517 -5.761406,-2.36526 l -1.924944,-0.46243 0.07286,3.99918 c 0.06045,3.31778 0.140486,4.00816 0.469739,4.05185 0.218281,0.029 0.962422,0.12706 1.653646,0.21799 l 1.25677,0.16532 v 1.55346 c 0,1.64495 0.04389,1.59118 -1.592765,1.95116 -1.32212,0.29079 -1.846818,1.09291 -1.846818,2.82326 v 1.57719 h -1.852083 c -1.018646,0 -1.857304,-0.0298 -1.863683,-0.0661 z"
       id="path191" /></g><metadata
     id="metadata240"><rdf:RDF><cc:Work
         rdf:about=""><dc:title>Lboro_Logo</dc:title></cc:Work></rdf:RDF></metadata></svg>
