<?xml version="1.0" encoding="UTF-8"?>
<svg id="Layer_1" data-name="Layer 1" xmlns="http://www.w3.org/2000/svg" viewBox="0 0 137.33 87.27">
  <defs>
    <style>
      .cls-1, .cls-2 {
        fill: none;
        stroke: #1d1d1b;
        stroke-miterlimit: 10;
      }

      .cls-2 {
        stroke-width: 2px;
      }
    </style>
  </defs>
  <circle class="cls-1" cx="92.93" cy="22.05" r="2.46"/>
  <line class="cls-1" x1="32.95" y1="69.49" x2="52.22" y2="62.82"/>
  <line class="cls-1" x1="56.36" y1="64.61" x2="65.61" y2="70.71"/>
  <line class="cls-1" x1="66.37" y1="59.51" x2="68.07" y2="68.25"/>
  <line class="cls-1" x1="68.14" y1="56.07" x2="96.58" y2="48.23"/>
  <line class="cls-1" x1="97.46" y1="45.17" x2="81.35" y2="29.78"/>
  <line class="cls-1" x1="78.4" y1="29.88" x2="66.57" y2="54.58"/>
  <line class="cls-1" x1="81.9" y1="26.56" x2="90.47" y2="22.79"/>
  <line class="cls-1" x1="92.93" y1="19.59" x2="91.09" y2="1.59"/>
  <line class="cls-1" x1="101.78" y1="47.57" x2="112.28" y2="49.52"/>
  <line class="cls-1" x1="69.03" y1="72.98" x2="71.91" y2="84.87"/>
  <line class="cls-1" x1="56.79" y1="61.55" x2="63.42" y2="57.04"/>
  <line class="cls-1" x1=".5" y1="13.59" x2=".5" y2="13.46"/>
  <path class="cls-2" d="M90.5,1.07c8.88,.71,14.55,6.64,16.17,8.35,7.25,7.59,8.02,16.92,8.35,20.87,1.08,13.06-4.6,22.87-7.83,28.43-2.72,4.69-8.26,13.99-19.7,20.61-4.26,2.46-15.67,8.85-30.13,6.39-4.04-.69-13.96-2.37-21-10.96-.57-.69-9.27-11.59-6.13-22.3,.67-2.27,1.76-4.19,2.35-5.22,3.32-5.81,7.69-8.95,9.65-10.43,7.75-5.86,13.61-13.87,20.48-20.74,6.6-6.6,9.99-9.94,14.35-12,2.93-1.39,7.49-3.48,13.43-3Z"/>
  <circle class="cls-1" cx="79.76" cy="27.91" r="2.46"/>
  <circle class="cls-1" cx="99.04" cy="47.05" r="2.46"/>
  <circle class="cls-1" cx="54.68" cy="62.82" r="2.46"/>
  <circle class="cls-1" cx="68.07" cy="70.71" r="2.46"/>
  <circle class="cls-1" cx="65.89" cy="57.04" r="2.46"/>
</svg>