<?xml version="1.0" encoding="UTF-8"?>
<svg id="Layer_1" data-name="Layer 1" xmlns="http://www.w3.org/2000/svg" viewBox="0 0 100 100">
  <defs>
    <style>
      .cls-1, .cls-2 {
        fill: none;
        stroke: #1d1d1b;
        stroke-miterlimit: 10;
      }

      .cls-2 {
        stroke-width: 2px;
      }
    </style>
  </defs>
  <circle class="cls-1" cx="70.21" cy="27.46" r="2.46"/>
  <line class="cls-1" x1="10.23" y1="74.89" x2="29.5" y2="68.23"/>
  <line class="cls-1" x1="33.64" y1="70.02" x2="42.89" y2="76.12"/>
  <line class="cls-1" x1="43.65" y1="64.91" x2="45.36" y2="73.66"/>
  <line class="cls-1" x1="45.43" y1="61.48" x2="73.86" y2="53.63"/>
  <line class="cls-1" x1="74.74" y1="50.58" x2="58.64" y2="35.19"/>
  <line class="cls-1" x1="55.68" y1="35.29" x2="43.85" y2="59.99"/>
  <line class="cls-1" x1="59.18" y1="31.96" x2="67.75" y2="28.2"/>
  <line class="cls-1" x1="70.21" y1="24.99" x2="68.37" y2="7"/>
  <line class="cls-1" x1="79.07" y1="52.98" x2="89.57" y2="54.92"/>
  <line class="cls-1" x1="46.31" y1="78.39" x2="49.2" y2="90.28"/>
  <line class="cls-1" x1="34.07" y1="66.96" x2="40.7" y2="62.45"/>
  <path class="cls-2" d="M67.78,6.48c8.88,.71,14.55,6.64,16.17,8.35,7.25,7.59,8.02,16.92,8.35,20.87,1.08,13.06-4.6,22.87-7.83,28.43-2.72,4.69-8.26,13.99-19.7,20.61-4.26,2.46-15.67,8.85-30.13,6.39-4.04-.69-13.96-2.37-21-10.96-.57-.69-9.27-11.59-6.13-22.3,.67-2.27,1.76-4.19,2.35-5.22,3.32-5.81,7.69-8.95,9.65-10.43,7.75-5.86,13.61-13.87,20.48-20.74,6.6-6.6,9.99-9.94,14.35-12,2.93-1.39,7.49-3.48,13.43-3Z"/>
  <circle class="cls-1" cx="57.04" cy="33.32" r="2.46"/>
  <circle class="cls-1" cx="76.32" cy="52.46" r="2.46"/>
  <circle class="cls-1" cx="31.96" cy="68.23" r="2.46"/>
  <circle class="cls-1" cx="45.36" cy="76.12" r="2.46"/>
  <circle class="cls-1" cx="43.17" cy="62.45" r="2.46"/>
</svg>